<svg width="26" height="26" viewBox="0 0 26 26" fill="none" xmlns="http://www.w3.org/2000/svg">
<g clip-path="url(#clip0_619_5188)">
<path fill-rule="evenodd" clip-rule="evenodd" d="M1.94344 0C0.884683 0 0.026001 0.832629 0.026001 1.85909V24.09C0.026001 25.1164 0.884683 25.948 1.94344 25.948H24.0566C25.1153 25.948 25.974 25.1164 25.974 24.09V1.85909C25.974 0.832629 25.1153 0 24.0566 0H1.94344ZM7.91149 10.0332V21.715H4.02867V10.0332H7.91149ZM8.16784 6.42031C8.16784 7.54159 7.32479 8.43883 5.97112 8.43883H5.94611C4.64246 8.43883 3.80045 7.54159 3.80045 6.42031C3.80045 5.27401 4.66851 4.40178 5.99717 4.40178C7.32479 4.40178 8.14283 5.27401 8.16784 6.42031ZM13.9431 21.715H10.0603C10.0603 21.715 10.1113 11.1295 10.0603 10.0332H13.9441V11.6863C14.4609 10.8906 15.3839 9.75916 17.4435 9.75916C19.9976 9.75916 21.913 11.4286 21.913 15.0165V21.714H18.0302V15.4656C18.0302 13.8952 17.4685 12.8239 16.0637 12.8239C14.9904 12.8239 14.3516 13.5461 14.0713 14.2443C13.9681 14.4934 13.9431 14.8425 13.9431 15.1916V21.715Z" fill="white"/>
</g>
<defs>
<clipPath id="clip0_619_5188">
<rect width="26" height="26" fill="white"/>
</clipPath>
</defs>
</svg>
